HIERARCHY
ROOT Hips
{
	OFFSET	0.00	0.00	0.00
	CHANNELS 6 Xposition Yposition Zposition Zrotation Xrotation Yrotation
	JOINT LeftUpLeg
	{
		OFFSET	 0.126116	-0.014019	-0.065224
		CHANNELS 3 Zrotation Xrotation Yrotation
		JOINT LeftLeg
		{
			OFFSET	 0.000000	 0.000000	 0.569914
			CHANNELS 3 Zrotation Xrotation Yrotation
			JOINT LeftFoot
			{
				OFFSET	 0.000000	 0.000000	 0.544423
				CHANNELS 3 Zrotation Xrotation Yrotation
				JOINT LeftToeBase
				{
					OFFSET	 0.000000	 0.000000	 0.207117
					CHANNELS 3 Zrotation Xrotation Yrotation
					End Site
					{
						OFFSET	 0.000000	 0.000000	 0.207117
					}
				}
			}
		}
	}
	JOINT RightUpLeg
	{
		OFFSET	-0.124023	-0.008373	-0.065224
		CHANNELS 3 Zrotation Xrotation Yrotation
		JOINT RightLeg
		{
			OFFSET	 0.000000	 0.000000	 0.570047
			CHANNELS 3 Zrotation Xrotation Yrotation
			JOINT RightFoot
			{
				OFFSET	 0.000000	 0.000000	 0.544354
				CHANNELS 3 Zrotation Xrotation Yrotation
				JOINT RightToeBase
				{
					OFFSET	 0.000000	 0.000000	 0.207540
					CHANNELS 3 Zrotation Xrotation Yrotation
					End Site
					{
						OFFSET	 0.000000	 0.000000	 0.207540
					}
				}
			}
		}
	}
	JOINT Spine
	{
		OFFSET	 0.000184	-0.007763	 0.117403
		CHANNELS 3 Zrotation Xrotation Yrotation
		JOINT Spine1
		{
			OFFSET	 0.000000	 0.000000	 0.137269
			CHANNELS 3 Zrotation Xrotation Yrotation
			JOINT Spine2
			{
				OFFSET	 0.000000	 0.000000	 0.156879
				CHANNELS 3 Zrotation Xrotation Yrotation
				JOINT LeftShoulder
				{
					OFFSET	 0.080501	-0.002496	 0.160144
					CHANNELS 3 Zrotation Xrotation Yrotation
					JOINT LeftArm
					{
						OFFSET	 0.000000	 0.000000	 0.164363
						CHANNELS 3 Zrotation Xrotation Yrotation
						JOINT LeftForeArm
						{
							OFFSET	 0.000000	 0.000000	 0.364576
							CHANNELS 3 Zrotation Xrotation Yrotation
							JOINT LeftHand
							{
								OFFSET	 0.000000	 0.000000	 0.360812
								CHANNELS 3 Zrotation Xrotation Yrotation
								JOINT LeftHandIndex1
								{
									OFFSET	 0.000000	 0.000000	 0.086006
									CHANNELS 3 Zrotation Xrotation Yrotation
									JOINT LeftHandIndex2
									{
										OFFSET	 0.000000	 0.000000	 0.047236
										CHANNELS 3 Zrotation Xrotation Yrotation
										JOINT LeftHandIndex3
										{
											OFFSET	-0.004284	-0.000551	 0.038166
											CHANNELS 3 Zrotation Xrotation Yrotation
											End Site
											{
												OFFSET	-0.004284	-0.000551	 0.038166
											}
										}
									}
								}
							}
						}
					}
				}
				JOINT Neck
				{
					OFFSET	 0.000000	 0.000000	 0.176489
					CHANNELS 3 Zrotation Xrotation Yrotation
					JOINT Head
					{
						OFFSET	 0.000000	-0.001747	 0.077940
						CHANNELS 3 Zrotation Xrotation Yrotation
						End Site
						{
							OFFSET	 0.000000	-0.001747	 0.077940
						}
					}
				}
				JOINT RightShoulder
				{
					OFFSET	-0.080363	 0.000306	 0.159706
					CHANNELS 3 Zrotation Xrotation Yrotation
					JOINT RightArm
					{
						OFFSET	 0.000000	 0.000000	 0.164196
						CHANNELS 3 Zrotation Xrotation Yrotation
						JOINT RightForeArm
						{
							OFFSET	 0.000000	 0.000000	 0.365611
							CHANNELS 3 Zrotation Xrotation Yrotation
							JOINT RightHand
							{
								OFFSET	 0.000000	 0.000000	 0.360648
								CHANNELS 3 Zrotation Xrotation Yrotation
								JOINT RightHandIndex1
								{
									OFFSET	 0.000000	 0.000000	 0.069977
									CHANNELS 3 Zrotation Xrotation Yrotation
									JOINT RightHandIndex2
									{
										OFFSET	 0.000000	 0.000000	 0.052305
										CHANNELS 3 Zrotation Xrotation Yrotation
										JOINT RightHandIndex3
										{
											OFFSET	 0.009002	-0.000782	 0.042196
											CHANNELS 3 Zrotation Xrotation Yrotation
											End Site
											{
												OFFSET	 0.009002	-0.000782	 0.042196
											}
										}
									}
								}
							}
						}
					}
				}
			}
		}
	}
}
MOTION
Frames:    12
Frame Time: 0.03333334
 0.012491	 0.033966	 1.200237	 5.700994	-0.456544	-2.757545	 2.757353	-11.868250	-172.917900	 1.278249	-39.198450	 0.584978	 56.591190	 81.783630	-60.969380	-2.368419	 31.777430	-0.073605	-11.257210	-32.838240	-176.212700	 11.599380	-49.211760	 9.418144	 34.045390	 81.693530	-31.329490	 2.359015	 32.993080	 0.103062	-8.173944	 8.110579	 1.854422	-2.057798	 1.728761	-1.304373	 3.093346	-2.281503	 1.574755	-94.124380	 58.983360	 174.989300	 16.703290	 34.260670	-38.220580	-2.196388	-0.039468	-0.950745	-0.654118	-19.197860	-8.681870	-4.864391	 19.390790	-2.800648	-3.869127	 21.631130	 2.190151	-4.804118	 5.594338	 0.144111	-0.036176	-5.107003	 0.235288	 1.087642	 1.740228	 2.619338	 89.709630	 61.769980	 179.826400	-19.865870	 54.095670	 10.944540	-1.672148	-1.756813	 9.426108	-4.688692	-3.750747	 0.336893	 6.275607	 23.502300	-0.552329	 2.047700	 43.355000	-7.137145	 0.809774	 23.018660	 3.427124
 0.011461	 0.005074	 1.198407	 6.228733	 0.265924	-3.000253	 2.319880	-10.889720	-172.940800	 1.508225	-38.674440	 0.722131	 61.059580	 82.387350	-65.603900	-2.366463	 32.093740	-0.080818	-12.717230	-35.121780	-176.549600	 11.807390	-44.838540	 8.931714	 49.835710	 82.596100	-48.460730	 2.360498	 32.772480	 0.097951	-9.221552	 7.497170	 1.824091	-2.087214	 1.941644	-1.077203	 2.935059	-2.659076	 1.479923	-94.300830	 58.988750	 174.612300	 15.920730	 32.328830	-39.248330	-3.171288	-0.023057	-1.225976	-0.747422	-20.208750	-8.722137	-4.852283	 19.672400	-2.813623	-3.854952	 21.811320	 2.175752	-4.797401	 5.673443	 0.139473	-0.011581	-5.158150	 0.292066	 0.996086	 1.585413	 2.570682	 89.605110	 61.906180	 179.574100	-19.248560	 54.971670	 8.990195	-2.249666	-1.884734	 9.896496	-4.985619	-3.633983	-0.304152	 6.250244	 21.937990	-0.596995	 2.199780	 42.027750	-7.271122	 1.158725	 21.432960	 3.260559
 0.009614	-0.047364	 1.194320	 6.530808	 0.951249	-3.478539	 1.969908	-8.115746	-172.993300	 1.681583	-37.187310	 0.803289	 67.784320	 83.280140	-72.414730	-2.359310	 33.185570	-0.105969	-12.468790	-36.834910	-176.534600	 10.728100	-35.280510	 6.693800	 81.224710	 81.977940	-81.025140	 2.353460	 33.785790	 0.121600	-10.682240	 6.640523	 1.995465	-2.123720	 2.981167	-0.767399	 2.768570	-3.398196	 1.334246	-94.464010	 58.964230	 174.268500	 13.852610	 29.532530	-40.898100	-4.727790	 0.010621	-1.660496	-1.415294	-21.407800	-8.171379	-4.827321	 20.186440	-2.822519	-3.826910	 22.165240	 2.147271	-4.772921	 5.961070	 0.122533	 0.020786	-5.270411	 0.340869	 0.861454	 1.336364	 2.515269	 89.454800	 62.040710	 179.208400	-17.869710	 56.043510	 6.453321	-3.491508	-1.736038	 8.882765	-5.556771	-3.729610	-1.945746	 6.199688	 19.238980	-0.701718	 2.511152	 39.094920	-7.541842	 1.736722	 18.716440	 3.002923
 0.005137	-0.116214	 1.184937	 6.939241	 1.053671	-3.701192	 1.245915	-3.723204	-173.606200	 2.127782	-35.395290	 1.028360	 59.889510	 83.722680	-64.639040	-2.321842	 37.739420	-0.216603	-11.845570	-37.617170	-176.620600	 10.350590	-24.536800	 4.661494	 59.048340	 79.479070	-59.732160	 2.336303	 35.961560	 0.173908	-13.055690	 6.481736	 2.051382	-2.109243	 3.911959	-0.504559	 2.598628	-4.401602	 1.174516	-94.537170	 59.008350	 174.105400	 10.994470	 27.628460	-42.240760	-5.729687	 0.061911	-2.255613	-2.846445	-23.780280	-9.039293	-4.855379	 20.533800	-3.087930	-3.782080	 22.724250	 2.101742	-4.710224	 6.692254	 0.078858	 0.130045	-5.424726	 0.327910	 0.826845	 1.125901	 2.149643	 89.357510	 61.864600	 178.979900	-15.549700	 56.687850	 2.778718	-4.733235	-1.370784	 7.512729	-5.655071	-5.113724	-4.002734	 6.170361	 15.586800	-0.606836	 2.914433	 34.813440	-7.883966	 2.474404	 15.093820	 2.709460
-0.003043	-0.181388	 1.170740	 7.306520	 0.703938	-2.783967	 0.735188	 0.597600	-175.625700	 1.970041	-34.636850	 0.919404	 28.703570	 81.270960	-32.549450	-2.174645	 48.180260	-0.521573	-9.958766	-40.892540	-177.151900	 6.985878	-22.326940	 2.957215	 16.346020	 71.060310	-13.019700	 2.340600	 35.450570	 0.161418	-15.590980	 6.457912	 1.149626	-1.951439	 5.389890	-0.183647	 2.348474	-5.286325	 0.841242	-94.460850	 59.352860	 174.211400	 8.804100	 26.946300	-43.680150	-6.853949	 0.133018	-2.864238	-4.565998	-25.767440	-10.016740	-4.891771	 20.703220	-3.352873	-3.754973	 23.058450	 2.074214	-4.631883	 7.595242	 0.023709	 0.251409	-5.476356	 0.245351	 0.877830	 1.148559	 2.166204	 89.353920	 61.447280	 178.986600	-13.749090	 56.826760	-1.799999	-5.257756	-1.880224	 10.072860	-6.001081	-7.010753	-5.203482	 6.262097	 12.209350	-0.014454	 3.119791	 32.397340	-8.053767	 3.086494	 11.966250	 2.498191
-0.011950	-0.254254	 1.157922	 8.705194	-0.270928	-1.561576	 1.021163	 6.405353	-178.690500	-0.167073	-32.001480	-0.275463	 8.051654	 69.245740	-7.991000	-1.816889	 60.120920	-1.046942	-6.429224	-42.119660	-176.357500	 6.457193	-22.608230	 2.786253	-1.870897	 56.569330	 9.456128	 2.335880	 36.011610	 0.175135	-18.607570	 6.783348	-0.010363	-2.141993	 6.980978	-0.056244	 1.914238	-5.925879	 0.506334	-94.364590	 59.076700	 174.462600	 7.529252	 26.028360	-44.751790	-8.102207	 0.222544	-3.468562	-5.203903	-25.313070	-9.908607	-4.883218	 20.995050	-3.400554	-3.723392	 23.443940	 2.042155	-4.553943	 8.481657	-0.031768	 0.382848	-5.393660	 0.283863	 0.817052	 1.484547	 2.363903	 89.172510	 61.326390	 178.563400	-12.391130	 56.562000	-3.595133	-4.686668	-1.522905	 9.905962	-5.732836	-8.864353	-4.220749	 6.350124	 9.513171	 0.417325	 3.334491	 29.683120	-8.227532	 3.491214	 9.844131	 2.375497
-0.022826	-0.343313	 1.147573	 10.040520	-0.881165	-0.020196	 4.953166	 12.699120	 175.919300	 1.467259	-28.354330	 0.529370	-0.111708	 45.612450	 5.811986	-1.202720	 69.304380	-1.783640	-9.676427	-39.742920	 179.793900	 6.788237	-22.738570	 2.931224	-3.145497	 47.176810	 11.761980	 2.360070	 32.837050	 0.099446	-21.625640	 6.746007	-0.967667	-2.918112	 7.806092	-1.133623	 1.339449	-6.211690	 0.655354	-94.161640	 59.667030	 174.808300	 7.498953	 26.271020	-44.727680	-7.930144	 0.330803	-4.144389	-5.072148	-24.381660	-10.900880	-4.790950	 21.352830	-2.969582	-3.649059	 24.335580	 1.966735	-4.490606	 9.193325	-0.077296	 0.371748	-5.355917	 0.202337	 0.489259	 1.847785	 2.270122	 89.004520	 60.513690	 178.217600	-11.497580	 55.523890	-5.696143	-2.295414	-1.300513	 11.509990	-3.670692	-11.144480	-2.041001	 6.386799	 8.760934	 0.572069	 3.388012	 28.974880	-8.270196	 3.666064	 8.915277	 2.326820
-0.032011	-0.424810	 1.142207	 8.809277	-1.480613	 1.175437	 13.873640	 14.758460	 169.299100	 0.270897	-29.768990	-0.040627	 2.831812	 33.886570	 8.375885	-2.332704	 36.570430	-0.187243	-10.435860	-36.374740	 176.444700	 5.392651	-24.316250	 2.540749	-2.415881	 47.861430	 12.755860	 2.373259	 30.679270	 0.050355	-22.385220	 7.112591	-1.727355	-3.366170	 7.174934	-1.668423	 1.144076	-5.943949	 0.486360	-94.049710	 59.775410	 175.035600	 7.777145	 27.149460	-43.197370	-7.417698	 0.440072	-4.730774	-5.111959	-24.588420	-10.750100	-4.739963	 21.802090	-2.804402	-3.583221	 25.107520	 1.899963	-4.430327	 9.863289	-0.120968	 0.278567	-5.405372	 0.176232	 0.067881	 1.850271	 2.386709	 89.083340	 60.264700	 178.411000	-11.829870	 55.036350	-6.270593	-0.276237	-0.928743	 12.278290	-1.630170	-13.436090	-0.286828	 6.406314	 10.042070	 0.644282	 3.296585	 30.176870	-8.197159	 3.572230	 9.414613	 2.352618
-0.044598	-0.541960	 1.142796	 6.428121	-2.571203	 2.062399	 18.489460	 12.142310	 164.511800	-3.409494	-41.197560	-2.480027	 6.031226	 44.726120	 4.431909	-2.381117	 29.463890	-0.022003	-10.151220	-36.827400	 173.973300	 5.287861	-36.689640	 3.620879	-2.459633	 58.379010	 13.654030	 2.374324	 30.486160	 0.046045	-22.095770	 7.878471	-2.257016	-3.408970	 5.257172	-1.863453	 1.044683	-5.040595	 0.361180	-93.931690	 59.480680	 175.333900	 8.856757	 28.607830	-39.978060	-7.102669	 0.623785	-5.542447	-6.291953	-25.864000	-10.198770	-4.626637	 23.331280	-2.585320	-3.489615	 26.177290	 1.805067	-4.289325	 11.402700	-0.224425	 0.118482	-5.295021	 0.056538	-0.535703	 1.582770	 2.276333	 89.422520	 60.216160	 179.183500	-13.821380	 54.748440	-1.909775	 3.000825	 0.569063	 5.562924	 1.168419	-16.994360	 1.336929	 6.381270	 13.399650	 0.509264	 3.010426	 33.705140	-7.963746	 3.138375	 11.696460	 2.481692
-0.053398	-0.644888	 1.150238	 5.006183	-3.308966	 1.946357	 13.630390	 7.647610	 166.898100	-3.107932	-54.770550	-2.827969	 3.489040	 61.024500	 4.300838	-2.378678	 29.948510	-0.032662	-9.901631	-34.523490	 173.668900	 4.224670	-43.680680	 3.445716	-2.219882	 66.875060	 14.345040	 2.374304	 30.488350	 0.046098	-21.415150	 8.353210	-2.060664	-3.175283	 3.912583	-1.825567	 0.806828	-4.362123	 0.400907	-93.775900	 59.736020	 175.638100	 10.803750	 30.932570	-37.329170	-5.714177	 0.803616	-6.252839	-6.834732	-24.844710	-8.701747	-4.585850	 24.073770	-2.567214	-3.415064	 27.006710	 1.729520	-4.169491	 12.680440	-0.313714	-0.042104	-5.120232	-0.045903	-1.147737	 1.316621	 2.051768	 89.564920	 59.788760	 179.513500	-16.239000	 54.567960	-0.837639	 6.520882	 0.540955	 11.421530	 3.382788	-20.279930	 2.480968	 6.374723	 16.353650	 0.438166	 2.786287	 36.237570	-7.776420	 2.648426	 14.215270	 2.646327
-0.058241	-0.729758	 1.161026	 3.652985	-3.558719	 1.703479	 9.002663	-0.305039	 170.973700	-0.625262	-67.899310	-0.906131	-7.562175	 76.053180	 13.809520	-2.367538	 31.920580	-0.076868	-9.811225	-31.005650	 173.635700	 2.713058	-46.449640	 2.517126	-3.245777	 73.025680	 16.274700	 2.374005	 30.544050	 0.047331	-20.155350	 8.488499	-2.009777	-2.771883	 3.864560	-1.329657	 0.514138	-4.440632	 0.147301	-93.650630	 60.106270	 175.865200	 12.942530	 33.584530	-35.356540	-3.822801	 0.980329	-6.886965	-6.219415	-23.436330	-6.715940	-4.550563	 24.947090	-2.641870	-3.363721	 27.566460	 1.677524	-4.114347	 13.259030	-0.355197	-0.225020	-4.897731	-0.110940	-1.793724	 0.940809	 2.297792	 89.687190	 59.810090	 179.787400	-18.287380	 52.971230	 4.766690	 9.697480	 1.057445	 13.014940	 4.769431	-20.920420	 3.516774	 6.380635	 18.467970	 0.436134	 2.586014	 38.343450	-7.606132	 2.247992	 16.223500	 2.795146
-0.061617	-0.851335	 1.182080	 1.747520	-3.308355	 1.317162	 10.320580	-14.003520	 173.682300	-7.981200	-75.260910	-8.063353	-114.052600	 88.038760	 119.198500	-2.382282	 29.223240	-0.016742	-8.485579	-24.371440	 174.352400	 0.284201	-46.003870	 0.749736	-4.533965	 79.149080	 18.583330	 2.369083	 31.407710	 0.066734	-18.015660	 8.259093	-2.041246	-1.804646	 4.020263	-0.477639	 0.134844	-4.861588	-0.371229	-93.286600	 60.293460	 176.648500	 16.286590	 38.098750	-32.122470	-2.468395	 1.260780	-7.737811	-4.652143	-22.055280	-3.618763	-4.516075	 25.669340	-2.671438	-3.306182	 28.183260	 1.619254	-4.070586	 13.714020	-0.388303	-0.404552	-4.778613	-0.189781	-2.608791	 0.470465	 2.659430	 90.036290	 60.283750	-179.421600	-20.770930	 49.536570	 14.433100	 13.691710	 1.773525	 13.326190	 5.436775	-20.929640	 5.168509	 6.377270	 20.015890	 0.383976	 2.435576	 39.834780	-7.476611	 1.973120	 17.574000	 2.904438
